# xmcd CD database file generated by Grip 2.5
# 
# Track frame offsets:
#       182
#       10687
#       27785
#       42125
#       53365
#       66370
#       83025
#       95612
#       113950
#       127282
#       139052
#       152367
#       162542
#       176942
# 
# Disc length: 2532 seconds
# 
# Revision: 3
# Processed by: cddbd v1.4b41PL1 Copyright (c) Steve Scherf et al.
# Submitted via: Grip 2.5
# 
DISCID=b509e20e
DTITLE=Kristi Guillory and Bill Grass - Reveille
DYEAR=1900
DGENRE=
TTITLE0=Les Veuves de la Coulee
TTITLE1=La Valse de la Grand Mere
TTITLE2=Quoi Ca Dit Mon Ami
TTITLE3=T'en a eu t'en auras plus
TTITLE4=J'ai Passe Devant ta Porte
TTITLE5=L'Anse aux Pailles
TTITLE6=Lake Arthur Stomp
TTITLE7=La Valse du Bayou Anglais
TTITLE8=Lacassine Special
TTITLE9=Les Flammes d'en Fer
TTITLE10=Reno Waltz
TTITLE11=Allons au Fais Do-Do
TTITLE12=Une Affaire a Pu Finir
TTITLE13=Sweetheart Shuffle
EXTD=
EXTT0=
EXTT1=
EXTT2=
EXTT3=
EXTT4=
EXTT5=
EXTT6=
EXTT7=
EXTT8=
EXTT9=
EXTT10=
EXTT11=
EXTT12=
EXTT13=
PLAYORDER=
